<?xml version="1.0" encoding="utf-8"?>
<!-- Svg Vector Icons : http://www.onlinewebfonts.com/icon -->
<!DOCTYPE svg PUBLIC "-//W3C//DTD SVG 1.1//EN" "http://www.w3.org/Graphics/SVG/1.1/DTD/svg11.dtd">
<svg version="1.1" xmlns="http://www.w3.org/2000/svg" xmlns:xlink="http://www.w3.org/1999/xlink" x="0px" y="0px" viewBox="0 0 1000 1000" enable-background="new 0 0 1000 1000" xml:space="preserve">
<metadata> Svg Vector Icons : http://www.onlinewebfonts.com/icon </metadata>
<g><g transform="translate(0.000000,511.000000) scale(0.100000,-0.100000)"><path d="M100,110v-4911.3h4900h4900V110v4911.3H5000H100V110z M9332.3,3574.9l-6.8-862.8H5000H674.5l-6.8,862.8l-4.5,860.6H5000h4336.8L9332.3,3574.9z M9332.3-1043.5l4.5-3172h-439.3h-439.3v428v428h-867.4h-867.4v-428v-428h-428h-428v146.4v146.4H5000h-867.4v-146.4v-146.4h-428h-428l-4.5,1007l-6.8,1009.3l-860.6,6.7l-862.8,4.5v-1013.8v-1013.8h-439.3H663.2v3160.8c0,1739.2,6.8,3169.8,15.8,3176.6c6.8,9,1955.5,13.5,4330,11.3l4316.5-6.8L9332.3-1043.5z"/><path d="M1541.8,3568.2v-281.6h574.5h574.5v281.6v281.6h-574.5h-574.5V3568.2z"/><path d="M3839.8,3568.2v-281.6H6149h2309.2v281.6v281.6H6149H3839.8V3568.2z"/><path d="M1541.8-182.9v-1441.8h867.4h867.4v1441.8V1259h-867.4h-867.4V-182.9z"/><path d="M4132.6,425.4v-833.6H5000h867.4v833.6V1259H5000h-867.4V425.4z"/><path d="M6723.4,110v-1149h867.4h867.4V110v1149h-867.4h-867.4V110z"/><path d="M4137.2-2203.7l6.8-1144.5H5000h856.1l6.8,1144.5l4.5,1142.2H5000h-867.4L4137.2-2203.7z"/><path d="M6723.4-2199.2v-574.5h867.4h867.4v574.5v574.5h-867.4h-867.4V-2199.2z"/></g></g>
</svg>