<?xml version="1.0" encoding="utf-8"?>
<!-- Svg Vector Icons : http://www.onlinewebfonts.com/icon -->
<!DOCTYPE svg PUBLIC "-//W3C//DTD SVG 1.1//EN" "http://www.w3.org/Graphics/SVG/1.1/DTD/svg11.dtd">
<svg version="1.1" xmlns="http://www.w3.org/2000/svg" xmlns:xlink="http://www.w3.org/1999/xlink" x="0px" y="0px" viewBox="0 0 1000 1000" enable-background="new 0 0 1000 1000" xml:space="preserve">
<metadata> Svg Vector Icons : http://www.onlinewebfonts.com/icon </metadata>
<g><g transform="translate(0.000000,35.000000) scale(0.100000,-0.100000)"><path d="M3460-30c0-140,140-280,280-280c168,0,280,140,280,280c0,168-112,280-280,280C3600,250,3460,138,3460-30z"/><path d="M5980-30c0-140,140-280,280-280c167.9,0,280,140,280,280c0,168-112.1,280-280,280C6120,250,5980,138,5980-30z"/><path d="M2620-870c0-140,140-280,280-280c168,0,280,140,280,280c0,168-112,280-280,280C2760-590,2620-702,2620-870z"/><path d="M3460-870c0-140,140-280,280-280c168,0,280,140,280,280c0,168-112,280-280,280C3600-590,3460-702,3460-870z"/><path d="M4300-870c0-140,140-280,280-280c168,0,280,140,280,280c0,168-112,280-280,280C4440-590,4300-702,4300-870z"/><path d="M5140-870c0-140,140-280,280-280c167.9,0,280,140,280,280c0,168-112.1,280-280,280C5280-590,5140-702,5140-870z"/><path d="M5980-870c0-140,140-280,280-280c167.9,0,280,140,280,280c0,168-112.1,280-280,280C6120-590,5980-702,5980-870z"/><path d="M6820-870c0-140,140-280,280-280c167.9,0,280,140,280,280c0,168-112.1,280-280,280C6960-590,6820-702,6820-870z"/><path d="M940-1710c0-140,140-280,280-280c168,0,280,140,280,280c0,168-112,280-280,280C1080-1430,940-1542,940-1710z"/><path d="M3460-1710c0-140,140-280,280-280c168,0,280,140,280,280c0,168-112,280-280,280C3600-1430,3460-1542,3460-1710z"/><path d="M5980-1710c0-140,140-280,280-280c167.9,0,280,140,280,280c0,168-112.1,280-280,280C6120-1430,5980-1542,5980-1710z"/><path d="M940-2550c0-140,140-280,280-280c168,0,280,140,280,280c0,168-112,280-280,280C1080-2270,940-2382,940-2550z"/><path d="M3460-2550c0-140,140-280,280-280c168,0,280,140,280,280c0,168-112,280-280,280C3600-2270,3460-2382,3460-2550z"/><path d="M5980-2550c0-140,140-280,280-280c167.9,0,280,140,280,280c0,168-112.1,280-280,280C6120-2270,5980-2382,5980-2550z"/><path d="M8500-2550c0-140,140-280,280-280c167.9,0,280,140,280,280c0,168-112.1,280-280,280C8640-2270,8500-2382,8500-2550z"/><path d="M100-3390c0-140,140-280,280-280c168,0,280,140,280,280c0,168-112,280-280,280C240-3110,100-3222,100-3390z"/><path d="M940-3390c0-140,140-280,280-280c168,0,280,140,280,280c0,168-112,280-280,280C1080-3110,940-3222,940-3390z"/><path d="M1780-3390c0-140,140-280,280-280c168,0,280,140,280,280c0,168-112,280-280,280C1920-3110,1780-3222,1780-3390z"/><path d="M2620-3390c0-140,140-280,280-280c168,0,280,140,280,280c0,168-112,280-280,280C2760-3110,2620-3222,2620-3390z"/><path d="M3460-3390c0-140,140-280,280-280c168,0,280,140,280,280c0,168-112,280-280,280C3600-3110,3460-3222,3460-3390z"/><path d="M4300-3390c0-140,140-280,280-280c168,0,280,140,280,280c0,168-112,280-280,280C4440-3110,4300-3222,4300-3390z"/><path d="M5140-3390c0-140,140-280,280-280c167.9,0,280,140,280,280c0,168-112.1,280-280,280C5280-3110,5140-3222,5140-3390z"/><path d="M5980-3390c0-140,140-280,280-280c167.9,0,280,140,280,280c0,168-112.1,280-280,280C6120-3110,5980-3222,5980-3390z"/><path d="M6820-3390c0-140,140-280,280-280c167.9,0,280,140,280,280c0,168-112.1,280-280,280C6960-3110,6820-3222,6820-3390z"/><path d="M7660-3390c0-140,140-280,280-280c167.9,0,280,140,280,280c0,168-112.1,280-280,280C7800-3110,7660-3222,7660-3390z"/><path d="M8500-3390c0-140,140-280,280-280c167.9,0,280,140,280,280c0,168-112.1,280-280,280C8640-3110,8500-3222,8500-3390z"/><path d="M9340-3390c0-140,140-280,280-280c167.9,0,280,140,280,280c0,168-112.1,280-280,280C9480-3110,9340-3222,9340-3390z"/><path d="M940-4230c0-140,140-280,280-280c168,0,280,140,280,280c0,168-112,280-280,280C1080-3950,940-4062,940-4230z"/><path d="M3460-4230c0-140,140-280,280-280c168,0,280,140,280,280c0,168-112,280-280,280C3600-3950,3460-4062,3460-4230z"/><path d="M5980-4230c0-140,140-280,280-280c167.9,0,280,140,280,280c0,168-112.1,280-280,280C6120-3950,5980-4062,5980-4230z"/><path d="M8500-4230c0-140,140-280,280-280c167.9,0,280,140,280,280c0,168-112.1,280-280,280C8640-3950,8500-4062,8500-4230z"/><path d="M940-5070c0-140,140-280,280-280c168,0,280,140,280,280c0,167.9-112,280-280,280C1080-4790,940-4902.1,940-5070z"/><path d="M3460-5070c0-140,140-280,280-280c168,0,280,140,280,280c0,167.9-112,280-280,280C3600-4790,3460-4902.1,3460-5070z"/><path d="M5980-5070c0-140,140-280,280-280c167.9,0,280,140,280,280c0,167.9-112.1,280-280,280C6120-4790,5980-4902.1,5980-5070z"/><path d="M8500-5070c0-140,140-280,280-280c167.9,0,280,140,280,280c0,167.9-112.1,280-280,280C8640-4790,8500-4902.1,8500-5070z"/><path d="M100-5910c0-140,140-280,280-280c168,0,280,140,280,280c0,167.9-112,280-280,280C240-5630,100-5742.1,100-5910z"/><path d="M940-5910c0-140,140-280,280-280c168,0,280,140,280,280c0,167.9-112,280-280,280C1080-5630,940-5742.1,940-5910z"/><path d="M1780-5910c0-140,140-280,280-280c168,0,280,140,280,280c0,167.9-112,280-280,280C1920-5630,1780-5742.1,1780-5910z"/><path d="M2620-5910c0-140,140-280,280-280c168,0,280,140,280,280c0,167.9-112,280-280,280C2760-5630,2620-5742.1,2620-5910z"/><path d="M3460-5910c0-140,140-280,280-280c168,0,280,140,280,280c0,167.9-112,280-280,280C3600-5630,3460-5742.1,3460-5910z"/><path d="M4300-5910c0-140,140-280,280-280c168,0,280,140,280,280c0,167.9-112,280-280,280C4440-5630,4300-5742.1,4300-5910z"/><path d="M5140-5910c0-140,140-280,280-280c167.9,0,280,140,280,280c0,167.9-112.1,280-280,280C5280-5630,5140-5742.1,5140-5910z"/><path d="M5980-5910c0-140,140-280,280-280c167.9,0,280,140,280,280c0,167.9-112.1,280-280,280C6120-5630,5980-5742.1,5980-5910z"/><path d="M6820-5910c0-140,140-280,280-280c167.9,0,280,140,280,280c0,167.9-112.1,280-280,280C6960-5630,6820-5742.1,6820-5910z"/><path d="M7660-5910c0-140,140-280,280-280c167.9,0,280,140,280,280c0,167.9-112.1,280-280,280C7800-5630,7660-5742.1,7660-5910z"/><path d="M8500-5910c0-140,140-280,280-280c167.9,0,280,140,280,280c0,167.9-112.1,280-280,280C8640-5630,8500-5742.1,8500-5910z"/><path d="M9340-5910c0-140,140-280,280-280c167.9,0,280,140,280,280c0,167.9-112.1,280-280,280C9480-5630,9340-5742.1,9340-5910z"/><path d="M940-6750c0-140,140-280,280-280c168,0,280,140,280,280c0,167.9-112,280-280,280C1080-6470,940-6582.1,940-6750z"/><path d="M3460-6750c0-140,140-280,280-280c168,0,280,140,280,280c0,167.9-112,280-280,280C3600-6470,3460-6582.1,3460-6750z"/><path d="M5980-6750c0-140,140-280,280-280c167.9,0,280,140,280,280c0,167.9-112.1,280-280,280C6120-6470,5980-6582.1,5980-6750z"/><path d="M8500-6750c0-140,140-280,280-280c167.9,0,280,140,280,280c0,167.9-112.1,280-280,280C8640-6470,8500-6582.1,8500-6750z"/><path d="M940-7590c0-140,140-280,280-280c168,0,280,140,280,280c0,167.9-112,280-280,280C1080-7310,940-7422.1,940-7590z"/><path d="M3460-7590c0-140,140-280,280-280c168,0,280,140,280,280c0,167.9-112,280-280,280C3600-7310,3460-7422.1,3460-7590z"/><path d="M5980-7590c0-140,140-280,280-280c167.9,0,280,140,280,280c0,167.9-112.1,280-280,280C6120-7310,5980-7422.1,5980-7590z"/><path d="M8500-7590c0-140,140-280,280-280c167.9,0,280,140,280,280c0,167.9-112.1,280-280,280C8640-7310,8500-7422.1,8500-7590z"/><path d="M1780-8430c0-140,140-280,280-280c168,0,280,140,280,280c0,167.9-112,280-280,280C1920-8150,1780-8262.1,1780-8430z"/><path d="M2620-8430c0-140,140-280,280-280c168,0,280,140,280,280c0,167.9-112,280-280,280C2760-8150,2620-8262.1,2620-8430z"/><path d="M3460-8430c0-140,140-280,280-280c168,0,280,140,280,280c0,167.9-112,280-280,280C3600-8150,3460-8262.1,3460-8430z"/><path d="M4300-8430c0-140,140-280,280-280c168,0,280,140,280,280c0,167.9-112,280-280,280C4440-8150,4300-8262.1,4300-8430z"/><path d="M5140-8430c0-140,140-280,280-280c167.9,0,280,140,280,280c0,167.9-112.1,280-280,280C5280-8150,5140-8262.1,5140-8430z"/><path d="M5980-8430c0-140,140-280,280-280c167.9,0,280,140,280,280c0,167.9-112.1,280-280,280C6120-8150,5980-8262.1,5980-8430z"/><path d="M6820-8430c0-140,140-280,280-280c167.9,0,280,140,280,280c0,167.9-112.1,280-280,280C6960-8150,6820-8262.1,6820-8430z"/><path d="M7660-8430c0-140,140-280,280-280c167.9,0,280,140,280,280c0,167.9-112.1,280-280,280C7800-8150,7660-8262.1,7660-8430z"/><path d="M3460-9270c0-140,140-280,280-280c168,0,280,140,280,280c0,167.9-112,280-280,280C3600-8990,3460-9102.1,3460-9270z"/><path d="M5980-9270c0-140,140-280,280-280c167.9,0,280,140,280,280c0,167.9-112.1,280-280,280C6120-8990,5980-9102.1,5980-9270z"/></g></g>
</svg>