<?xml version="1.0" encoding="utf-8"?>
<!-- Svg Vector Icons : http://www.onlinewebfonts.com/icon -->
<!DOCTYPE svg PUBLIC "-//W3C//DTD SVG 1.1//EN" "http://www.w3.org/Graphics/SVG/1.1/DTD/svg11.dtd">
<svg version="1.1" xmlns="http://www.w3.org/2000/svg" xmlns:xlink="http://www.w3.org/1999/xlink" x="0px" y="0px" viewBox="0 0 1000 1000" enable-background="new 0 0 1000 1000" xml:space="preserve">
<metadata> Svg Vector Icons : http://www.onlinewebfonts.com/icon </metadata>
<g><g><g><g><path d="M633.9,268.1c22.9,13.1,45.7,26.1,65.3,42.5c-6.6-39.2-16.3-71.9-29.4-104.5c-32.7,6.5-68.6,13.1-104.5,22.9C588.2,242,611.1,255,633.9,268.1z"/><path d="M160.3,500c19.6,26.1,45.7,52.3,71.9,78.4c-3.3-26.1-3.3-52.3-3.3-78.4c0-26.1,0-52.3,3.3-78.4C206,447.7,183.1,473.9,160.3,500z"/><path d="M722.1,202.7c16.3,45.7,29.4,94.7,39.2,150.3c42.5,35.9,81.7,71.9,111.1,107.8c49-75.1,62.1-143.7,32.6-192.7c-26.1-42.5-81.7-65.3-163.3-65.3C735.2,199.5,728.7,199.5,722.1,202.7z"/><path d="M839.8,500c-19.6-26.1-45.8-52.3-71.9-78.4c3.3,26.1,3.3,52.3,3.3,78.4c0,26.1,0,52.3-3.3,78.4C794,552.3,816.9,526.1,839.8,500z"/><path d="M500,745c35.9-16.3,75.1-32.6,111.1-55.5c35.9-19.6,71.9-42.4,101.3-68.6c6.5-39.2,9.8-81.7,9.8-124.2c0-42.4-3.3-81.7-9.8-124.1c-32.7-22.9-65.3-45.7-101.3-68.6c-35.9-19.6-71.9-39.2-111.1-55.5c-35.9,16.3-75.1,32.7-111.1,55.5c-35.9,19.6-71.9,42.5-101.2,68.6c-6.5,39.2-9.8,81.7-9.8,124.1c0,42.5,3.3,84.9,9.8,124.2c32.7,22.8,65.3,45.7,101.2,68.6C424.9,712.4,464.1,728.7,500,745z"/><path d="M500,797.3c-49,19.6-101.2,32.7-147,42.5c39.2,78.4,91.5,124.2,147,124.2c55.6,0,107.8-49,147-124.2C601.3,833.2,549,816.9,500,797.3z"/><path d="M277.9,797.3c-16.3-45.7-29.4-94.7-39.2-150.3c-42.5-32.7-78.4-71.9-111.1-107.9c-49,75.1-62.1,143.7-32.6,192.8c26.1,42.5,81.7,65.3,163.3,65.3C264.8,800.5,271.3,800.5,277.9,797.3z"/><path d="M241.9,349.7c9.8-55.5,19.6-104.5,39.2-150.3c-6.5,0-13.1,0-19.6,0c-78.4,0-137.2,22.8-163.3,65.3c-26.1,45.7-16.3,114.3,32.7,192.7C163.5,421.6,199.5,385.7,241.9,349.7z"/><path d="M500,202.7c49-19.6,101.3-32.7,147-42.5C607.8,81.9,555.6,36.1,500,36.1c-55.5,0-107.8,49-147,124.2C398.8,166.8,451,183.2,500,202.7z"/><path d="M366.1,732c-22.9-13.1-45.7-26.1-65.3-42.5c6.5,35.9,19.6,71.9,29.4,101.3c32.6-6.5,68.6-13.1,104.5-22.9C411.8,758.1,388.9,745,366.1,732z"/><path d="M300.7,846.3c-13.1,0-26.1,3.3-39.2,3.3c-49,0-91.5-6.5-124.1-22.8c68.6,78.4,163.3,134,267.8,153.5C362.8,950.8,326.9,905.1,300.7,846.3z"/><path d="M258.3,150.5c13.1,0,26.1,0,39.2,3.3C326.9,95,359.5,49.2,398.7,19.8C294.2,42.7,199.5,98.2,130.9,173.4C170.1,160.3,212.5,150.5,258.3,150.5z"/><path d="M91.7,509.8c3.3-3.3,3.3-6.5,6.5-9.8c-3.3-3.3-3.3-6.5-6.5-9.8C59,437.9,39.4,388.9,32.9,346.5C19.8,395.5,10,444.5,10,500c0,55.5,9.8,104.5,26.1,153.5C39.4,611.1,59,562.1,91.7,509.8z"/><path d="M741.7,849.5c-13.1,0-26.1,0-39.2-3.3c-29.4,58.8-62.1,104.6-101.3,134c104.5-22.9,199.3-78.4,267.9-153.5C830,839.7,787.5,849.5,741.7,849.5z"/><path d="M901.8,732c29.4-49,13.1-117.6-35.9-192.7c-32.7,35.9-68.6,75.1-111,107.8c-9.8,55.6-22.9,104.5-39.2,150.3c6.5,0,13.1,0,19.6,0C820.1,800.5,878.9,774.4,901.8,732z"/><path d="M633.9,732c-22.9,13-45.8,26.1-68.6,35.9c35.9,9.8,71.9,19.6,104.5,22.9c13.1-29.4,22.8-65.3,29.4-101.3C679.7,705.8,656.8,718.9,633.9,732z"/><path d="M366.1,268.1c22.8-13.1,45.7-26.1,68.6-36c-35.9-9.8-71.9-19.6-104.5-22.8c-13.1,29.4-22.9,65.3-29.4,101.3C320.4,294.2,343.2,281.1,366.1,268.1z"/><path d="M699.3,153.7c13.1,0,26.1-3.3,39.2-3.3c49,0,91.4,6.5,124.1,22.8C794,94.9,699.3,39.4,594.8,19.8C637.2,49.2,673.2,95,699.3,153.7z"/><path d="M963.9,346.5c-3.3,45.7-22.9,94.7-58.8,143.7c-3.3,3.3-3.3,6.5-6.5,9.8c35.9,52.3,58.8,107.8,65.3,153.5c16.3-49,26.1-101.2,26.1-153.5C990,444.5,980.2,395.5,963.9,346.5z"/></g></g></g><g></g><g></g><g></g><g></g><g></g><g></g><g></g><g></g><g></g><g></g><g></g><g></g><g></g><g></g><g></g></g>
</svg>