<?xml version="1.0" encoding="utf-8"?>
<!-- Svg Vector Icons : http://www.onlinewebfonts.com/icon -->
<!DOCTYPE svg PUBLIC "-//W3C//DTD SVG 1.1//EN" "http://www.w3.org/Graphics/SVG/1.1/DTD/svg11.dtd">
<svg version="1.1" xmlns="http://www.w3.org/2000/svg" xmlns:xlink="http://www.w3.org/1999/xlink" x="0px" y="0px" viewBox="0 0 1000 1000" enable-background="new 0 0 1000 1000" xml:space="preserve">
<metadata> Svg Vector Icons : http://www.onlinewebfonts.com/icon </metadata>
<g><g transform="translate(0.000000,512.000000) scale(0.100000,-0.100000)"><path d="M3470.1,4989.3c-78.5-51.7-2488.2-2463.4-2518.9-2518.9c-23-44-26.8-549.3-26.8-3573.5c0-2689.2,5.7-3533.3,23-3571.6c49.8-111-179.9-105.3,3646.2-105.3c3452.9,0,3519.9,0,3579.2,38.3c97.6,59.3,105.3,109.1,97.6,828.8l-5.7,648.9l-63.2,55.5c-86.1,76.6-189.5,76.6-275.6,0l-63.2-55.5l-5.7-557l-5.8-557H4589.8H1326.4v3273v3273h1148.4c782.8,0,1161.8,5.7,1192.4,21.1c24.9,11.5,59.3,44,76.6,74.6c28.7,47.9,32.5,164.6,32.5,1203.9V4618h2038.5h2038.4V2663.7c0-2166.7-7.7-2049.9,124.4-2111.2c78.5-38.3,93.8-38.3,172.3,0c132.1,61.3,124.4-67,124.4,2216.5c0,1738-3.8,2071-26.8,2126.5c-55.5,132.1,105.3,124.4-2436.6,124.4C3720.8,5019.9,3512.2,5018,3470.1,4989.3z M3374.4,3440.8V2570h-874.7h-876.6l870.9,870.9c478.5,478.5,872.8,870.9,874.7,870.9C3372.5,4311.7,3374.4,3919.3,3374.4,3440.8z"/><path d="M3054.8,81.7c-40.2-23-68.9-61.3-82.3-109.1c-15.3-51.7-19.1-453.6-15.3-1332.2l5.7-1261.4l63.2-55.5c72.7-65.1,178-74.6,250.7-24.9c90,63.2,97.6,122.5,97.6,677.6v516.8h264.1c386.6,0,535.9,53.6,729.2,258.4c294.8,310.1,298.6,779,7.7,1100.6C4274-35.1,4163,33.8,4004.1,83.6c-97.6,30.6-178,36.4-501.5,36.4C3152.4,120,3110.3,116.1,3054.8,81.7z M3967.8-339.4c227.8-128.3,281.4-430.7,109.1-625.9c-101.4-114.9-179.9-139.7-457.5-139.7h-245v413.4v413.4l254.6-7.7C3856.7-291.5,3889.3-297.3,3967.8-339.4z"/><path d="M5757.4,93.2c-683.3-157-974.2-802-566.6-1259.4c183.7-206.7,428.7-313.9,788.6-342.6c268-21,407.7-67,518.7-166.5c105.3-93.8,135.9-162.7,126.3-271.8c-11.5-112.9-65.1-189.5-183.7-266.1c-256.5-164.6-666.1-145.5-892,40.2c-76.6,63.2-143.6,183.7-145.5,258.4c0,112.9-91.9,197.1-212.5,197.1c-42.1,0-78.5-19.1-126.3-67c-68.9-68.9-68.9-68.9-57.4-193.3c17.2-178,86.1-313.9,229.7-455.5c204.8-201,461.3-298.6,788.6-298.6c826.9-1.9,1309.2,754.1,819.2,1282.4c-197.1,214.4-434.5,315.8-800.1,344.5c-245,19.1-388.5,65.1-501.5,162.7c-206.7,176.1-160.8,419.2,101.4,558.9c292.9,155,692.9,111,886.2-101.5c76.6-80.4,84.2-99.5,107.2-241.2c23-145.5,206.7-220.1,321.5-130.2c143.6,112.9,90,415.4-114.8,633.5c-195.2,210.5-457.5,323.5-780.9,335C5943,116.1,5830.1,110.4,5757.4,93.2z"/><path d="M7518.3,56.8l-67-67v-1284.3c0-953.2,5.7-1295.8,23-1332.2c40.2-91.9,99.5-105.3,430.7-105.3c342.6,0,459.4,21,645,120.6c239.2,126.3,453.6,409.6,509.1,671.8c13.4,68.9,19.1,306.3,15.3,685.2c-5.7,543.6-7.6,587.6-47.8,691c-111,292.9-329.2,511.1-627.8,625.9c-101.4,40.2-156.9,45.9-463.2,53.6l-350.3,7.7L7518.3,56.8z M8301.2-337.5c122.5-53.6,266-195.2,319.6-313.9c44-97.6,45.9-111,45.9-664.2v-564.6l-65.1-120.6c-72.7-134-134-193.3-277.5-266.1c-80.4-42.1-130.2-53.6-283.3-59.3l-187.6-7.7v1012.5c0,557,5.7,1020.2,15.3,1027.8C7895.4-264.7,8211.2-297.3,8301.2-337.5z"/></g></g>
</svg>