<?xml version="1.0" encoding="utf-8"?>
<!-- Svg Vector Icons : http://www.onlinewebfonts.com/icon -->
<!DOCTYPE svg PUBLIC "-//W3C//DTD SVG 1.1//EN" "http://www.w3.org/Graphics/SVG/1.1/DTD/svg11.dtd">
<svg version="1.1" xmlns="http://www.w3.org/2000/svg" xmlns:xlink="http://www.w3.org/1999/xlink" x="0px" y="0px" viewBox="0 0 1000 1000" enable-background="new 0 0 1000 1000" xml:space="preserve">
<metadata> Svg Vector Icons : http://www.onlinewebfonts.com/icon </metadata>
<g><g transform="translate(0.000000,512.000000) scale(0.100000,-0.100000)"><path d="M404.9,5010.4c-101.6-24.9-197.5-95.9-253.1-189.9l-51.8-90.1V1959.2V-812l53.7-90.1c34.5-59.4,84.4-109.3,143.8-143.8l90.1-53.7l1695.3-5.8l1695.3-3.8l-11.5-226.3c-13.4-333.7-122.7-640.5-316.4-895.6l-72.9-95.9l-205.2-5.7l-205.2-5.8V-2538v-201.4h1217.8h1217.8v1428.7V118.1H2947.9H493.1v2253.4v2253.4h4094.4H8682V3397.5V2170.1h201.4h203.3l-5.7,1292.6l-5.7,1292.6l-57.5,84.4c-32.6,44.1-97.8,103.6-143.8,130.4l-86.3,47.9l-4161.6,3.8C2336.1,5021.9,437.5,5018,404.9,5010.4z M4693.1-317.2c103.6-70.9,134.2-161.1,86.3-260.8c-67.1-140-245.5-166.9-343.3-49.9C4288.4-453.4,4507.1-188.7,4693.1-317.2z"/><path d="M915.1,3800.3v-402.7H2037h1121.9v402.7V4203H2037H915.1V3800.3z"/><path d="M3580.8,3800.3v-402.7h2339.7h2339.7v402.7V4203H5920.4H3580.8V3800.3z"/><path d="M915.1,2572.9v-402.7h3672.5h3672.5v402.7v402.7H4587.6H915.1V2572.9z"/><path d="M6064.3,1711.8c-95.9-42.2-193.7-151.5-220.5-245.5c-15.3-51.8-19.2-934-15.3-3030.1l5.8-2955.3l57.5-84.4c32.6-44.1,97.8-103.6,143.8-130.4l86.3-47.9H7867c1923.5,0,1789.3-7.7,1915.9,117c126.6,128.5,117-140,117,3143.2V1451l-47.9,86.3c-26.9,46-86.3,111.2-130.4,143.8l-84.4,57.5l-1747.1,3.8C6229.2,1748.2,6137.1,1746.3,6064.3,1711.8z M8651.4,1314.8c23-21.1,30.7-69,30.7-180.3c0-226.3,57.5-211-820.8-211h-734.5l-46,47.9c-40.3,38.4-47.9,65.2-47.9,166.9c0,78.6,9.6,136.2,30.7,164.9l28.8,42.2h765.2C8526.7,1345.5,8626.4,1341.7,8651.4,1314.8z M9506.7-1512v-2052H7867H6227.3v2052V540H7867h1639.7V-1512z M8079.9-3861.3c151.5-88.2,230.1-285.8,180.3-458.3c-84.4-306.8-477.5-402.7-692.3-170.7c-90.1,95.9-118.9,172.6-109.3,303C7477.7-3870.8,7805.6-3700.2,8079.9-3861.3z"/><path d="M6649.2-83.2v-201.4H7867h1217.8v201.4v201.4H7867H6649.2V-83.2z"/><path d="M6649.2-1109.2V-1512H7867h1217.8v402.7v402.7H7867H6649.2V-1109.2z"/><path d="M6649.2-2538v-604.1H7867h1217.8v604.1v604.1H7867H6649.2V-2538z"/><path d="M7788.4-4031.9c-205.2-90.1-138.1-375.9,88.2-375.9c69,0,166.9,80.5,182.2,151.5c19.2,86.3-34.5,189.8-113.2,222.5C7865.1-3999.3,7863.1-3999.3,7788.4-4031.9z"/></g></g>
</svg>