<?xml version="1.0" encoding="utf-8"?>
<!-- Svg Vector Icons : http://www.onlinewebfonts.com/icon -->
<!DOCTYPE svg PUBLIC "-//W3C//DTD SVG 1.1//EN" "http://www.w3.org/Graphics/SVG/1.1/DTD/svg11.dtd">
<svg version="1.1" xmlns="http://www.w3.org/2000/svg" xmlns:xlink="http://www.w3.org/1999/xlink" x="0px" y="0px" viewBox="0 0 1000 1000" enable-background="new 0 0 1000 1000" xml:space="preserve">
<metadata> Svg Vector Icons : http://www.onlinewebfonts.com/icon </metadata>
<g><g transform="translate(0.000000,511.000000) scale(0.100000,-0.100000)"><path d="M415.7,4638.7c-107.2-38.3-204.9-124.5-260.4-231.7l-47.9-91.9l-5.7-3408.5C97.9-2844.7,90.2-2597.7,212.7-2747c32.6-38.3,107.2-93.8,168.5-124.5l109.2-53.6l1499.4-5.7c1451.5-5.7,1497.5-5.7,1497.5-42.1c0-38.3-72.8-559.2-86.2-626.2c-9.6-44-13.4-44-363.8-44H2683v-402.1v-402.1h2317h2317v402.1v402.1h-354.3c-350.4,0-354.3,0-363.8,42.1c-13.4,68.9-86.2,589.8-86.2,628.1c0,36.4,46,36.4,1499.4,42.1l1497.5,5.7l109.2,53.6c61.3,30.6,136,86.2,168.5,124.5c122.6,149.4,114.9-97.7,111.1,3653.6l-5.7,3408.5l-49.8,93.8c-53.6,107.2-174.3,208.7-281.5,239.4c-47.9,13.4-1528.1,19.2-4570.9,19.2C1214.2,4665.5,478.9,4661.7,415.7,4638.7z M9289.4,1498.3v-2556.4H5000H710.6v2556.4v2556.4H5000h4289.4V1498.3z M9289.4-1994.5v-323.6H5000H710.6v323.6v323.6H5000h4289.4V-1994.5z M5890.4-2976.8c13.4-70.8,86.2-589.8,86.2-630c0-34.5-26.8-36.4-976.6-36.4c-949.8,0-976.6,1.9-976.6,36.4c0,40.2,72.8,559.1,86.2,630l9.6,42.1H5000h880.9L5890.4-2976.8z"/><path d="M4624.7,3681.3c-459.6-82.3-842.6-285.3-1177.7-620.4c-296.8-294.9-478.7-610.9-587.9-1013c-44-166.6-49.8-222.1-49.8-530.4c-1.9-381.1,24.9-534.3,143.6-829.2c139.8-356.2,415.5-714.3,725.7-947.9c739.2-557.3,1761.7-582.1,2556.4-61.3c153.2,99.6,499.8,448.1,601.3,603.2c266.2,407.9,381.1,834.9,360,1328.9c-23,564.9-235.5,1043.6-643.4,1449.6c-340.8,340.8-720,540-1177.6,620.4C5174.3,3715.8,4814.2,3715.8,4624.7,3681.3z M4565.3,3340.4c-7.7-13.4-67-91.9-128.3-174.3c-113-151.3-308.3-465.3-329.4-532.3c-5.7-19.2-21.1-34.5-34.5-34.5c-44,0-298.7,291.1-298.7,340.8c0,30.6,254.7,206.8,402.1,275.8c95.7,46,352.3,141.7,398.3,149.4C4578.7,3365.3,4573,3353.8,4565.3,3340.4z M5750.6,3250.4c124.5-51.7,440.4-248.9,467.2-289.2c5.8-11.5-11.5-53.6-40.2-95.7c-57.4-82.3-233.6-266.2-254.7-266.2c-7.7,0-44,57.4-80.4,128.3c-84.2,158.9-247,407.9-346.6,526.6c-40.2,49.8-74.7,93.8-74.7,99.6C5421.3,3369.2,5607,3309.8,5750.6,3250.4z M4846.8,2721.9v-453.8l-90,13.4c-109.1,13.4-383,103.4-400.2,128.3c-11.5,21.1,114.9,258.5,227.9,428.9c91.9,137.9,241.3,335.1,254.7,335.1C4843,3173.8,4846.8,2970.9,4846.8,2721.9z M5283.4,3024.5c191.5-250.9,384.9-587.9,354.3-618.5c-24.9-24.9-302.5-113-398.3-126.4l-86.2-11.5v453.8c0,248.9,3.8,451.9,9.6,451.9C5166.6,3173.8,5222.1,3106.8,5283.4,3024.5z M3914.2,2097.7c-24.9-95.7-49.8-233.6-57.5-306.4l-11.5-130.2h-369.6c-204.9,0-371.5,7.7-371.5,17.2c0,9.6,13.4,88.1,30.6,174.3c51.7,279.6,162.8,540,325.5,766l67,93.8l214.5-220.2l216.4-218.3L3914.2,2097.7z M6583.6,2553.4c149.4-224,260.4-515.1,300.6-800.4l13.4-91.9h-371.5h-371.5l-11.5,130.2c-7.7,72.8-34.5,212.6-59.4,312.1l-45.9,180l147.5,136c80.4,76.6,172.3,172.3,201.1,216.4c30.6,44,65.1,76.6,76.6,72.8C6474.5,2704.7,6528.1,2635.7,6583.6,2553.4z M4691.7,1982.8l155.1-23v-149.4v-149.4h-344.7h-344.7v55.5c0,59.4,26.8,216.4,57.4,329.4l19.2,70.8l151.3-53.6C4467.7,2032.6,4605.5,1996.2,4691.7,1982.8z M5773.6,2088.1c24.9-78.5,68.9-319.8,68.9-371.5v-55.5h-344.7h-344.7v153.2v153.2h55.5c74.7,0,406,86.2,474.9,122.6C5752.6,2128.3,5762.1,2128.3,5773.6,2088.1z M3858.7,1216.8c7.7-76.6,32.6-216.4,55.5-310.2l42.1-168.5l-206.8-208.7c-113-114.9-212.6-208.7-220.2-212.6c-24.9-5.7-210.6,291.1-271.9,436.6c-63.2,151.3-120.6,356.2-141.7,511.3l-13.4,90h371.5h371.5L3858.7,1216.8z M4846.8,1201.5c0-141.7-3.8-153.2-38.3-153.2c-78.5,0-337-61.3-448.1-107.2c-88.1-36.4-118.7-40.2-130.2-23c-19.2,34.5-53.6,193.4-67,325.5l-11.5,111.1h348.5h346.6V1201.5z M5842.6,1299.2c0-59.4-26.8-216.4-59.4-331.3c-15.3-61.3-26.8-72.8-51.7-63.2C5607,958.3,5409.8,1015.7,5293,1033l-139.8,23v149.4v149.4h344.7h344.7V1299.2z M6895.8,1331.7c-1.9-74.7-80.4-390.6-130.2-518.9c-61.3-155.1-178.1-365.8-260.4-463.4l-47.9-57.5l-51.7,67c-28.7,36.4-122.6,136-208.7,220.2l-157,155.1l46,180c24.9,99.6,49.8,237.4,57.5,310.2l11.5,130.2h369.6C6809.6,1354.7,6895.8,1348.9,6895.8,1331.7z M4846.8,261.3v-482.5l-59.4,74.7c-149.4,183.8-438.5,668.3-438.5,733.4c0,36.4,331.3,149.4,455.7,153.2l42.1,1.9V261.3z M5340.8,713.2c149.4-34.5,310.2-103.4,310.2-130.2c0-61.3-289.1-543.8-438.5-729.6l-59.4-74.7v482.5C5153.2,808.9,5134,761.1,5340.8,713.2z M4149.8,278.5c74.7-149.4,243.2-419.4,337-536.2c68.9-88.1,53.6-90-158.9-7.6c-176.2,67-386.8,183.8-496,275.7c-63.2,53.6-65.1,59.4-40.2,107.2c28.7,53.6,256.6,298.7,277.7,298.7C4075.1,416.4,4111.5,353.2,4149.8,278.5z M6183.4,140.6l51.7-74.7l-67-55.5c-109.2-91.9-319.8-208.7-495.9-275.7c-90-36.4-174.3-63.2-187.7-65.1c-13.4,0,24.9,67,82.4,147.4c113,157,218.3,329.4,304.5,501.7l51.7,103.4l103.4-103.4C6083.8,261.3,6154.7,182.8,6183.4,140.6z"/></g></g>
</svg>