<?xml version="1.0" encoding="utf-8"?>
<!-- Generator: Adobe Illustrator 23.0.1, SVG Export Plug-In . SVG Version: 6.00 Build 0)  -->
<svg version="1.1" id="Layer_1" xmlns="http://www.w3.org/2000/svg" xmlns:xlink="http://www.w3.org/1999/xlink" x="0px" y="0px"
	 viewBox="0 0 1024 1024" style="enable-background:new 0 0 1024 1024;" xml:space="preserve">
<style type="text/css">
	.st0{fill:#FFFFFF;}
</style>
<rect class="st0" width="50" height="50"/>
<g>
	<g>
		<circle cx="512.03" cy="512" r="90.37"/>
	</g>
	<g>
		<path d="M259.93,810.36c-8.29,0-16.58-3.16-22.91-9.49L36.66,600.5C13.02,576.86,0,545.43,0,512c0-33.43,13.02-64.86,36.66-88.5
			l200.37-200.37c12.65-12.65,33.16-12.65,45.81,0c12.65,12.65,12.65,33.16,0,45.81L82.47,469.31
			c-11.4,11.4-17.68,26.56-17.68,42.69s6.28,31.29,17.68,42.69l200.37,200.37c12.65,12.65,12.65,33.16,0,45.81
			C276.51,807.2,268.22,810.36,259.93,810.36z"/>
	</g>
	<g>
		<path d="M366.95,743.1c-6.42,0-12.84-2.45-17.74-7.35l-155.2-155.2c-37.8-37.8-37.8-99.3,0-137.1l155.2-155.2
			c9.8-9.8,25.68-9.8,35.48,0c9.8,9.8,9.8,25.68,0,35.48l-155.2,155.2c-18.23,18.23-18.23,47.9,0,66.14l155.2,155.2
			c9.8,9.8,9.8,25.68,0,35.48C379.8,740.65,373.38,743.1,366.95,743.1z"/>
	</g>
	<g>
		<path d="M764.12,810.36c-8.29,0-16.58-3.16-22.91-9.49c-12.65-12.65-12.65-33.16,0-45.81l200.37-200.37
			c23.54-23.54,23.54-61.84,0-85.38L741.22,268.94c-12.65-12.65-12.65-33.16,0-45.81c12.65-12.65,33.16-12.65,45.81,0L987.4,423.5
			c48.8,48.8,48.8,128.2,0,177L787.03,800.87C780.7,807.19,772.41,810.36,764.12,810.36z"/>
	</g>
	<g>
		<path d="M657.11,743.1c-6.42,0-12.84-2.45-17.74-7.35c-9.79-9.8-9.79-25.68,0-35.48l155.2-155.2c18.24-18.23,18.24-47.9,0-66.14
			l-155.2-155.2c-9.79-9.8-9.79-25.68,0-35.48c9.8-9.8,25.68-9.8,35.49,0l155.2,155.2c37.8,37.8,37.8,99.3,0,137.1l-155.2,155.2
			C669.95,740.65,663.53,743.1,657.11,743.1z"/>
	</g>
</g>
</svg>
