<?xml version="1.0" encoding="utf-8"?>
<!-- Svg Vector Icons : http://www.onlinewebfonts.com/icon -->
<!DOCTYPE svg PUBLIC "-//W3C//DTD SVG 1.1//EN" "http://www.w3.org/Graphics/SVG/1.1/DTD/svg11.dtd">
<svg version="1.1" xmlns="http://www.w3.org/2000/svg" xmlns:xlink="http://www.w3.org/1999/xlink" x="0px" y="0px" viewBox="0 0 1000 1000" enable-background="new 0 0 1000 1000" xml:space="preserve">
<metadata> Svg Vector Icons : http://www.onlinewebfonts.com/icon </metadata>
<g><g transform="translate(0.000000,237.000000) scale(0.100000,-0.100000)"><path d="M5539.8,318.3c-1063-1063.1-1951.7-1930.9-1976.6-1930.9c-29.1,0-598,427.7-1266.5,950.9L1075.8,285.1L619.1,56.7C369.9-67.9,149.8-192.5,133.2-217.4C116.6-242.3,100-1330.3,100-2638.3c0-1781.4,12.5-2383.5,49.8-2408.5c24.9-16.6,245-137,485.8-261.6l440.2-228.4L2292.5-4590c668.6,519.1,1237.5,942.6,1266.5,942.6c24.9,0,917.7-867.9,1980.8-1930.9l1930.9-1930.9l1216.7,485.9L9900-6537.5v3911.7v3911.7l-1204.2,481.7c-660.3,265.8-1208.4,481.7-1212.5,481.7C7474.9,2249.2,6602.9,1381.4,5539.8,318.3z M7491.5-2630c0-1362-12.4-2014-41.5-2014c-78.9,0-2553.8,1955.8-2553.8,2018.1c0,66.4,2458.3,2005.7,2545.5,2009.8C7479.1-616,7491.5-1043.7,7491.5-2630z M1827.5-1865.9c386.2-386.2,710.1-726.7,718.4-751.6c16.6-54-1366.2-1445.1-1436.8-1445.1c-41.5,0-54,311.4-54,1453.4c0,801.4,16.6,1453.4,37.4,1453.4C1109.1-1155.8,1441.3-1475.6,1827.5-1865.9z"/></g></g>
</svg>